<mxfile host="app.diagrams.net" modified="2020-09-29T06:17:07.913Z" agent="5.0 (Macintosh; Intel Mac OS X 10_14_6) AppleWebKit/605.1.15 (KHTML, like Gecko) Version/12.1.2 Safari/605.1.15" etag="Cm2PxXD6rKcMzHfMpbKu" version="13.7.3" type="github">
  <diagram id="prtHgNgQTEPvFCAcTncT" name="Page-1">
    <mxGraphModel dx="892" dy="555" grid="1" gridSize="10" guides="1" tooltips="1" connect="1" arrows="1" fold="1" page="1" pageScale="1" pageWidth="827" pageHeight="1169" math="0" shadow="0">
      <root>
        <mxCell id="0" />
        <mxCell id="1" parent="0" />
        <mxCell id="B4ZthugA1VZ0yfeLqG-1-1" value="业务角色" style="rounded=1;whiteSpace=wrap;html=1;" parent="1" vertex="1">
          <mxGeometry x="80" y="80" width="100" height="60" as="geometry" />
        </mxCell>
        <mxCell id="B4ZthugA1VZ0yfeLqG-1-2" value="" style="rounded=1;whiteSpace=wrap;html=1;fillColor=#ffe6cc;strokeColor=#d79b00;" parent="1" vertex="1">
          <mxGeometry x="190" y="160" width="480" height="300" as="geometry" />
        </mxCell>
        <mxCell id="B4ZthugA1VZ0yfeLqG-1-3" value="产品能力" style="rounded=1;whiteSpace=wrap;html=1;" parent="1" vertex="1">
          <mxGeometry x="80" y="160" width="100" height="300" as="geometry" />
        </mxCell>
        <mxCell id="B4ZthugA1VZ0yfeLqG-1-4" value="核心服务" style="rounded=1;whiteSpace=wrap;html=1;" parent="1" vertex="1">
          <mxGeometry x="80" y="480" width="100" height="160" as="geometry" />
        </mxCell>
        <mxCell id="B4ZthugA1VZ0yfeLqG-1-9" value="&lt;p style=&quot;margin: 0px ; font-stretch: normal ; line-height: normal ; font-family: &amp;#34;pingfang sc&amp;#34;&quot;&gt;&lt;font color=&quot;#000000&quot;&gt;跟组织说说心里话&lt;/font&gt;&lt;/p&gt;" style="rounded=0;whiteSpace=wrap;html=1;fillColor=#1ba1e2;fontColor=#ffffff;strokeColor=none;" parent="1" vertex="1">
          <mxGeometry x="210" y="190" width="80" height="30" as="geometry" />
        </mxCell>
        <mxCell id="B4ZthugA1VZ0yfeLqG-1-10" value="mPaas小程序" style="text;html=1;strokeColor=none;fillColor=none;align=center;verticalAlign=middle;whiteSpace=wrap;rounded=0;glass=0;shadow=0;sketch=0;fontStyle=1;fontSize=14;" parent="1" vertex="1">
          <mxGeometry x="364" y="165" width="110" height="20" as="geometry" />
        </mxCell>
        <mxCell id="B4ZthugA1VZ0yfeLqG-1-11" value="&lt;p style=&quot;margin: 0px ; font-stretch: normal ; line-height: normal ; font-family: &amp;#34;pingfang sc&amp;#34;&quot;&gt;&lt;font color=&quot;#000000&quot;&gt;我要入党&lt;/font&gt;&lt;/p&gt;" style="rounded=0;whiteSpace=wrap;html=1;fillColor=#1ba1e2;fontColor=#ffffff;strokeColor=none;" parent="1" vertex="1">
          <mxGeometry x="300" y="190" width="80" height="30" as="geometry" />
        </mxCell>
        <mxCell id="B4ZthugA1VZ0yfeLqG-1-12" value="&lt;p style=&quot;margin: 0px ; font-stretch: normal ; line-height: normal ; font-family: &amp;#34;pingfang sc&amp;#34;&quot;&gt;&lt;font color=&quot;#000000&quot;&gt;&lt;span&gt;困难帮扶&lt;/span&gt;&lt;/font&gt;&lt;/p&gt;" style="rounded=0;whiteSpace=wrap;html=1;fillColor=#1ba1e2;fontColor=#ffffff;strokeColor=none;" parent="1" vertex="1">
          <mxGeometry x="390" y="190" width="80" height="30" as="geometry" />
        </mxCell>
        <mxCell id="B4ZthugA1VZ0yfeLqG-1-13" value="&lt;p style=&quot;margin: 0px ; font-stretch: normal ; line-height: normal ; font-family: &amp;#34;pingfang sc&amp;#34;&quot;&gt;&lt;font color=&quot;#000000&quot;&gt;&lt;span&gt;组织关系转接&lt;/span&gt;&lt;/font&gt;&lt;/p&gt;" style="rounded=0;whiteSpace=wrap;html=1;fillColor=#1ba1e2;fontColor=#ffffff;strokeColor=none;" parent="1" vertex="1">
          <mxGeometry x="480" y="190" width="80" height="30" as="geometry" />
        </mxCell>
        <mxCell id="B4ZthugA1VZ0yfeLqG-1-14" value="&lt;p style=&quot;margin: 0px ; font-stretch: normal ; line-height: normal ; font-family: &amp;#34;pingfang sc&amp;#34;&quot;&gt;&lt;font color=&quot;#000000&quot;&gt;&lt;span&gt;党费交纳&lt;/span&gt;&lt;/font&gt;&lt;/p&gt;" style="rounded=0;whiteSpace=wrap;html=1;fillColor=#1ba1e2;fontColor=#ffffff;strokeColor=none;" parent="1" vertex="1">
          <mxGeometry x="570" y="190" width="80" height="30" as="geometry" />
        </mxCell>
        <mxCell id="B4ZthugA1VZ0yfeLqG-1-15" value="&lt;p style=&quot;margin: 0px ; font-stretch: normal ; line-height: normal ; font-family: &amp;#34;pingfang sc&amp;#34;&quot;&gt;&lt;font color=&quot;#000000&quot;&gt;&lt;span&gt;就业创业&lt;/span&gt;&lt;/font&gt;&lt;/p&gt;" style="rounded=0;whiteSpace=wrap;html=1;fillColor=#1ba1e2;fontColor=#ffffff;strokeColor=none;" parent="1" vertex="1">
          <mxGeometry x="210" y="225" width="80" height="30" as="geometry" />
        </mxCell>
        <mxCell id="B4ZthugA1VZ0yfeLqG-1-16" value="&lt;p style=&quot;margin: 0px ; font-stretch: normal ; line-height: normal ; font-family: &amp;#34;pingfang sc&amp;#34;&quot;&gt;&lt;font color=&quot;#000000&quot;&gt;&lt;span&gt;志愿服务&lt;/span&gt;&lt;/font&gt;&lt;/p&gt;" style="rounded=0;whiteSpace=wrap;html=1;fillColor=#1ba1e2;fontColor=#ffffff;strokeColor=none;" parent="1" vertex="1">
          <mxGeometry x="300" y="225" width="80" height="30" as="geometry" />
        </mxCell>
        <mxCell id="B4ZthugA1VZ0yfeLqG-1-17" value="&lt;p style=&quot;margin: 0px ; font-stretch: normal ; line-height: normal ; font-family: &amp;#34;pingfang sc&amp;#34;&quot;&gt;&lt;font color=&quot;#000000&quot;&gt;&lt;span&gt;我为杭城献一策&lt;/span&gt;&lt;/font&gt;&lt;/p&gt;" style="rounded=0;whiteSpace=wrap;html=1;fillColor=#1ba1e2;fontColor=#ffffff;strokeColor=none;" parent="1" vertex="1">
          <mxGeometry x="390" y="225" width="80" height="30" as="geometry" />
        </mxCell>
        <mxCell id="B4ZthugA1VZ0yfeLqG-1-18" value="&lt;p style=&quot;margin: 0px ; font-stretch: normal ; line-height: normal ; font-family: &amp;#34;pingfang sc&amp;#34;&quot;&gt;&lt;font color=&quot;#000000&quot;&gt;&lt;span&gt;领导视图&lt;/span&gt;&lt;/font&gt;&lt;/p&gt;" style="rounded=0;whiteSpace=wrap;html=1;fillColor=#1ba1e2;fontColor=#ffffff;strokeColor=none;" parent="1" vertex="1">
          <mxGeometry x="480" y="225" width="80" height="30" as="geometry" />
        </mxCell>
        <mxCell id="B4ZthugA1VZ0yfeLqG-1-19" value="&lt;p style=&quot;margin: 0px ; font-stretch: normal ; line-height: normal ; font-family: &amp;#34;pingfang sc&amp;#34;&quot;&gt;&lt;font color=&quot;#000000&quot;&gt;&lt;span&gt;红色路线&lt;/span&gt;&lt;/font&gt;&lt;/p&gt;" style="rounded=0;whiteSpace=wrap;html=1;fillColor=#1ba1e2;fontColor=#ffffff;strokeColor=none;" parent="1" vertex="1">
          <mxGeometry x="570" y="225" width="80" height="30" as="geometry" />
        </mxCell>
        <mxCell id="B4ZthugA1VZ0yfeLqG-1-20" value="&lt;p style=&quot;margin: 0px ; font-stretch: normal ; line-height: normal ; font-family: &amp;#34;pingfang sc&amp;#34;&quot;&gt;&lt;font color=&quot;#000000&quot;&gt;&lt;span&gt;讲解服务预约&lt;/span&gt;&lt;/font&gt;&lt;/p&gt;" style="rounded=0;whiteSpace=wrap;html=1;fillColor=#1ba1e2;fontColor=#ffffff;strokeColor=none;" parent="1" vertex="1">
          <mxGeometry x="210" y="260" width="80" height="30" as="geometry" />
        </mxCell>
        <mxCell id="B4ZthugA1VZ0yfeLqG-1-21" value="&lt;p style=&quot;margin: 0px ; font-stretch: normal ; line-height: normal ; font-family: &amp;#34;pingfang sc&amp;#34;&quot;&gt;&lt;font color=&quot;#000000&quot;&gt;&lt;span&gt;问卷调查&lt;/span&gt;&lt;/font&gt;&lt;/p&gt;" style="rounded=0;whiteSpace=wrap;html=1;fillColor=#1ba1e2;fontColor=#ffffff;strokeColor=none;" parent="1" vertex="1">
          <mxGeometry x="300" y="260" width="80" height="30" as="geometry" />
        </mxCell>
        <mxCell id="B4ZthugA1VZ0yfeLqG-1-22" value="&lt;p style=&quot;margin: 0px ; font-stretch: normal ; line-height: normal ; font-family: &amp;#34;pingfang sc&amp;#34;&quot;&gt;&lt;font color=&quot;#000000&quot;&gt;&lt;span&gt;第一书记工作台&lt;/span&gt;&lt;/font&gt;&lt;/p&gt;" style="rounded=0;whiteSpace=wrap;html=1;fillColor=#1ba1e2;fontColor=#ffffff;strokeColor=none;" parent="1" vertex="1">
          <mxGeometry x="390" y="260" width="80" height="30" as="geometry" />
        </mxCell>
        <mxCell id="B4ZthugA1VZ0yfeLqG-1-23" value="&lt;p style=&quot;margin: 0px ; font-stretch: normal ; line-height: normal ; font-family: &amp;#34;pingfang sc&amp;#34;&quot;&gt;&lt;font color=&quot;#000000&quot;&gt;&lt;span&gt;微奉献&lt;/span&gt;&lt;/font&gt;&lt;/p&gt;" style="rounded=0;whiteSpace=wrap;html=1;fillColor=#1ba1e2;fontColor=#ffffff;strokeColor=none;" parent="1" vertex="1">
          <mxGeometry x="480" y="260" width="80" height="30" as="geometry" />
        </mxCell>
        <mxCell id="B4ZthugA1VZ0yfeLqG-1-24" value="&lt;p style=&quot;margin: 0px ; font-stretch: normal ; line-height: normal ; font-family: &amp;#34;pingfang sc&amp;#34;&quot;&gt;&lt;font color=&quot;#000000&quot;&gt;&lt;span&gt;智慧人才平台&lt;/span&gt;&lt;/font&gt;&lt;/p&gt;" style="rounded=0;whiteSpace=wrap;html=1;fillColor=#1ba1e2;fontColor=#ffffff;strokeColor=none;" parent="1" vertex="1">
          <mxGeometry x="570" y="260" width="80" height="30" as="geometry" />
        </mxCell>
        <mxCell id="B4ZthugA1VZ0yfeLqG-1-25" value="&lt;p style=&quot;margin: 0px ; font-stretch: normal ; line-height: normal ; font-family: &amp;#34;pingfang sc&amp;#34;&quot;&gt;&lt;font color=&quot;#000000&quot;&gt;&lt;span&gt;工作预警&lt;/span&gt;&lt;/font&gt;&lt;/p&gt;" style="rounded=0;whiteSpace=wrap;html=1;fillColor=#1ba1e2;fontColor=#ffffff;strokeColor=none;" parent="1" vertex="1">
          <mxGeometry x="210" y="295" width="80" height="30" as="geometry" />
        </mxCell>
        <mxCell id="B4ZthugA1VZ0yfeLqG-1-26" value="&lt;p style=&quot;margin: 0px ; font-stretch: normal ; line-height: normal ; font-family: &amp;#34;pingfang sc&amp;#34;&quot;&gt;&lt;font color=&quot;#000000&quot;&gt;&lt;span&gt;民主评议&lt;/span&gt;&lt;/font&gt;&lt;/p&gt;" style="rounded=0;whiteSpace=wrap;html=1;fillColor=#1ba1e2;fontColor=#ffffff;strokeColor=none;" parent="1" vertex="1">
          <mxGeometry x="300" y="295" width="80" height="30" as="geometry" />
        </mxCell>
        <mxCell id="B4ZthugA1VZ0yfeLqG-1-27" value="&lt;p style=&quot;margin: 0px ; font-stretch: normal ; line-height: normal ; font-family: &amp;#34;pingfang sc&amp;#34;&quot;&gt;&lt;font color=&quot;#000000&quot;&gt;&lt;span&gt;村社打卡&lt;/span&gt;&lt;/font&gt;&lt;/p&gt;" style="rounded=0;whiteSpace=wrap;html=1;fillColor=#1ba1e2;fontColor=#ffffff;strokeColor=none;" parent="1" vertex="1">
          <mxGeometry x="390" y="295" width="80" height="30" as="geometry" />
        </mxCell>
        <mxCell id="B4ZthugA1VZ0yfeLqG-1-28" value="&lt;p style=&quot;margin: 0px ; font-stretch: normal ; line-height: normal ; font-family: &amp;#34;pingfang sc&amp;#34;&quot;&gt;&lt;font color=&quot;#000000&quot;&gt;&lt;span&gt;党员先锋贷&lt;/span&gt;&lt;/font&gt;&lt;/p&gt;" style="rounded=0;whiteSpace=wrap;html=1;fillColor=#1ba1e2;fontColor=#ffffff;strokeColor=none;" parent="1" vertex="1">
          <mxGeometry x="480" y="295" width="80" height="30" as="geometry" />
        </mxCell>
        <mxCell id="B4ZthugA1VZ0yfeLqG-1-29" value="&lt;p style=&quot;margin: 0px ; font-stretch: normal ; line-height: normal ; font-family: &amp;#34;pingfang sc&amp;#34;&quot;&gt;&lt;font color=&quot;#000000&quot;&gt;&lt;span&gt;成长赋能&lt;/span&gt;&lt;/font&gt;&lt;/p&gt;" style="rounded=0;whiteSpace=wrap;html=1;fillColor=#1ba1e2;fontColor=#ffffff;strokeColor=none;" parent="1" vertex="1">
          <mxGeometry x="570" y="295" width="80" height="30" as="geometry" />
        </mxCell>
        <mxCell id="B4ZthugA1VZ0yfeLqG-1-30" value="&lt;p style=&quot;margin: 0px ; font-stretch: normal ; line-height: normal ; font-family: &amp;#34;pingfang sc&amp;#34;&quot;&gt;&lt;font color=&quot;#000000&quot;&gt;&lt;span&gt;党性体验&lt;/span&gt;&lt;/font&gt;&lt;/p&gt;" style="rounded=0;whiteSpace=wrap;html=1;fillColor=#1ba1e2;fontColor=#ffffff;strokeColor=none;" parent="1" vertex="1">
          <mxGeometry x="210" y="330" width="80" height="30" as="geometry" />
        </mxCell>
        <mxCell id="B4ZthugA1VZ0yfeLqG-1-31" value="&lt;p style=&quot;margin: 0px ; font-stretch: normal ; line-height: normal ; font-family: &amp;#34;pingfang sc&amp;#34;&quot;&gt;&lt;font color=&quot;#000000&quot;&gt;&lt;span&gt;扫楼扫街&lt;/span&gt;&lt;/font&gt;&lt;/p&gt;" style="rounded=0;whiteSpace=wrap;html=1;fillColor=#1ba1e2;fontColor=#ffffff;strokeColor=none;" parent="1" vertex="1">
          <mxGeometry x="300" y="330" width="80" height="30" as="geometry" />
        </mxCell>
        <mxCell id="B4ZthugA1VZ0yfeLqG-1-32" value="&lt;p style=&quot;margin: 0px ; font-stretch: normal ; line-height: normal ; font-family: &amp;#34;pingfang sc&amp;#34;&quot;&gt;&lt;font color=&quot;#000000&quot;&gt;&lt;span&gt;工作督办&lt;/span&gt;&lt;/font&gt;&lt;/p&gt;" style="rounded=0;whiteSpace=wrap;html=1;fillColor=#1ba1e2;fontColor=#ffffff;strokeColor=none;" parent="1" vertex="1">
          <mxGeometry x="390" y="330" width="80" height="30" as="geometry" />
        </mxCell>
        <mxCell id="B4ZthugA1VZ0yfeLqG-1-33" value="&lt;p style=&quot;margin: 0px ; font-stretch: normal ; line-height: normal ; font-family: &amp;#34;pingfang sc&amp;#34;&quot;&gt;&lt;font color=&quot;#000000&quot;&gt;&lt;span&gt;爱心驿站&lt;/span&gt;&lt;/font&gt;&lt;/p&gt;" style="rounded=0;whiteSpace=wrap;html=1;fillColor=#1ba1e2;fontColor=#ffffff;strokeColor=none;" parent="1" vertex="1">
          <mxGeometry x="480" y="330" width="80" height="30" as="geometry" />
        </mxCell>
        <mxCell id="B4ZthugA1VZ0yfeLqG-1-34" value="&lt;p style=&quot;margin: 0px ; font-stretch: normal ; line-height: normal ; font-family: &amp;#34;pingfang sc&amp;#34;&quot;&gt;&lt;font color=&quot;#000000&quot;&gt;&lt;span&gt;我行我show&lt;/span&gt;&lt;/font&gt;&lt;/p&gt;" style="rounded=0;whiteSpace=wrap;html=1;fillColor=#1ba1e2;fontColor=#ffffff;strokeColor=none;" parent="1" vertex="1">
          <mxGeometry x="570" y="330" width="80" height="30" as="geometry" />
        </mxCell>
        <mxCell id="B4ZthugA1VZ0yfeLqG-1-35" value="&lt;p style=&quot;margin: 0px ; font-stretch: normal ; line-height: normal ; font-family: &amp;#34;pingfang sc&amp;#34;&quot;&gt;&lt;font color=&quot;#000000&quot;&gt;&lt;span&gt;先锋码&lt;/span&gt;&lt;/font&gt;&lt;/p&gt;" style="rounded=0;whiteSpace=wrap;html=1;fillColor=#1ba1e2;fontColor=#ffffff;strokeColor=none;" parent="1" vertex="1">
          <mxGeometry x="210" y="367" width="80" height="30" as="geometry" />
        </mxCell>
        <mxCell id="B4ZthugA1VZ0yfeLqG-1-36" value="&lt;p style=&quot;margin: 0px ; font-stretch: normal ; line-height: normal ; font-family: &amp;#34;pingfang sc&amp;#34;&quot;&gt;&lt;font color=&quot;#000000&quot;&gt;&lt;span&gt;兴农扶贫&lt;/span&gt;&lt;/font&gt;&lt;/p&gt;" style="rounded=0;whiteSpace=wrap;html=1;fillColor=#1ba1e2;fontColor=#ffffff;strokeColor=none;" parent="1" vertex="1">
          <mxGeometry x="300" y="367" width="80" height="30" as="geometry" />
        </mxCell>
        <mxCell id="B4ZthugA1VZ0yfeLqG-1-37" value="&lt;p style=&quot;margin: 0px ; font-stretch: normal ; line-height: normal ; font-family: &amp;#34;pingfang sc&amp;#34;&quot;&gt;&lt;font color=&quot;#000000&quot;&gt;&lt;span&gt;党建双强&lt;/span&gt;&lt;/font&gt;&lt;/p&gt;" style="rounded=0;whiteSpace=wrap;html=1;fillColor=#1ba1e2;fontColor=#ffffff;strokeColor=none;" parent="1" vertex="1">
          <mxGeometry x="390" y="367" width="80" height="30" as="geometry" />
        </mxCell>
        <mxCell id="B4ZthugA1VZ0yfeLqG-1-38" value="&lt;p style=&quot;margin: 0px ; font-stretch: normal ; line-height: normal ; font-family: &amp;#34;pingfang sc&amp;#34;&quot;&gt;&lt;font color=&quot;#000000&quot;&gt;&lt;span&gt;兴村治社名师&lt;/span&gt;&lt;/font&gt;&lt;/p&gt;" style="rounded=0;whiteSpace=wrap;html=1;fillColor=#1ba1e2;fontColor=#ffffff;strokeColor=none;" parent="1" vertex="1">
          <mxGeometry x="480" y="367" width="80" height="30" as="geometry" />
        </mxCell>
        <mxCell id="B4ZthugA1VZ0yfeLqG-1-39" value="&lt;p style=&quot;margin: 0px ; font-stretch: normal ; line-height: normal ; font-family: &amp;#34;pingfang sc&amp;#34;&quot;&gt;&lt;font color=&quot;#000000&quot;&gt;&lt;span&gt;任务清单&lt;/span&gt;&lt;/font&gt;&lt;/p&gt;" style="rounded=0;whiteSpace=wrap;html=1;fillColor=#1ba1e2;fontColor=#ffffff;strokeColor=none;" parent="1" vertex="1">
          <mxGeometry x="570" y="367" width="80" height="30" as="geometry" />
        </mxCell>
        <mxCell id="B4ZthugA1VZ0yfeLqG-1-40" value="&lt;p style=&quot;margin: 0px ; font-stretch: normal ; line-height: normal ; font-family: &amp;#34;pingfang sc&amp;#34;&quot;&gt;&lt;font color=&quot;#000000&quot;&gt;&lt;span&gt;知识问答&lt;/span&gt;&lt;/font&gt;&lt;/p&gt;" style="rounded=0;whiteSpace=wrap;html=1;fillColor=#1ba1e2;fontColor=#ffffff;strokeColor=none;" parent="1" vertex="1">
          <mxGeometry x="210" y="404" width="80" height="30" as="geometry" />
        </mxCell>
        <mxCell id="B4ZthugA1VZ0yfeLqG-1-41" value="&lt;p style=&quot;margin: 0px ; font-stretch: normal ; line-height: normal ; font-family: &amp;#34;pingfang sc&amp;#34;&quot;&gt;&lt;font color=&quot;#000000&quot;&gt;&lt;span&gt;朗读者&lt;/span&gt;&lt;/font&gt;&lt;/p&gt;" style="rounded=0;whiteSpace=wrap;html=1;fillColor=#1ba1e2;fontColor=#ffffff;strokeColor=none;" parent="1" vertex="1">
          <mxGeometry x="300" y="404" width="80" height="30" as="geometry" />
        </mxCell>
        <mxCell id="B4ZthugA1VZ0yfeLqG-1-45" value="" style="rounded=1;whiteSpace=wrap;html=1;fillColor=#ffe6cc;strokeColor=#d79b00;" parent="1" vertex="1">
          <mxGeometry x="190" y="480" width="480" height="160" as="geometry" />
        </mxCell>
        <mxCell id="B4ZthugA1VZ0yfeLqG-1-46" value="&lt;p style=&quot;margin: 0px ; font-stretch: normal ; line-height: normal ; font-family: &amp;#34;pingfang sc&amp;#34;&quot;&gt;&lt;font color=&quot;#000000&quot;&gt;跟组织说说心里话&lt;/font&gt;&lt;/p&gt;" style="rounded=0;whiteSpace=wrap;html=1;fillColor=#1ba1e2;fontColor=#ffffff;strokeColor=none;" parent="1" vertex="1">
          <mxGeometry x="210" y="510" width="80" height="30" as="geometry" />
        </mxCell>
        <mxCell id="B4ZthugA1VZ0yfeLqG-1-47" value="核心模块" style="text;html=1;strokeColor=none;fillColor=none;align=center;verticalAlign=middle;whiteSpace=wrap;rounded=0;glass=0;shadow=0;sketch=0;fontStyle=1;fontSize=14;" parent="1" vertex="1">
          <mxGeometry x="364" y="485" width="110" height="20" as="geometry" />
        </mxCell>
        <mxCell id="B4ZthugA1VZ0yfeLqG-1-51" value="&lt;p style=&quot;margin: 0px ; font-stretch: normal ; line-height: normal ; font-family: &amp;#34;pingfang sc&amp;#34;&quot;&gt;&lt;font color=&quot;#000000&quot;&gt;&lt;span&gt;党费交纳&lt;/span&gt;&lt;/font&gt;&lt;/p&gt;" style="rounded=0;whiteSpace=wrap;html=1;fillColor=#1ba1e2;fontColor=#ffffff;strokeColor=none;" parent="1" vertex="1">
          <mxGeometry x="300" y="510" width="80" height="30" as="geometry" />
        </mxCell>
        <mxCell id="B4ZthugA1VZ0yfeLqG-1-57" value="&lt;p style=&quot;margin: 0px ; font-stretch: normal ; line-height: normal ; font-family: &amp;#34;pingfang sc&amp;#34;&quot;&gt;&lt;font color=&quot;#000000&quot;&gt;&lt;span&gt;讲解服务预约&lt;/span&gt;&lt;/font&gt;&lt;/p&gt;" style="rounded=0;whiteSpace=wrap;html=1;fillColor=#1ba1e2;fontColor=#ffffff;strokeColor=none;" parent="1" vertex="1">
          <mxGeometry x="390" y="510" width="80" height="30" as="geometry" />
        </mxCell>
        <mxCell id="B4ZthugA1VZ0yfeLqG-1-58" value="&lt;p style=&quot;margin: 0px ; font-stretch: normal ; line-height: normal ; font-family: &amp;#34;pingfang sc&amp;#34;&quot;&gt;&lt;font color=&quot;#000000&quot;&gt;&lt;span&gt;问卷调查&lt;/span&gt;&lt;/font&gt;&lt;/p&gt;" style="rounded=0;whiteSpace=wrap;html=1;fillColor=#1ba1e2;fontColor=#ffffff;strokeColor=none;" parent="1" vertex="1">
          <mxGeometry x="480" y="510" width="80" height="30" as="geometry" />
        </mxCell>
        <mxCell id="B4ZthugA1VZ0yfeLqG-1-59" value="&lt;p style=&quot;margin: 0px ; font-stretch: normal ; line-height: normal ; font-family: &amp;#34;pingfang sc&amp;#34;&quot;&gt;&lt;font color=&quot;#000000&quot;&gt;&lt;span&gt;第一书记工作台&lt;/span&gt;&lt;/font&gt;&lt;/p&gt;" style="rounded=0;whiteSpace=wrap;html=1;fillColor=#1ba1e2;fontColor=#ffffff;strokeColor=none;" parent="1" vertex="1">
          <mxGeometry x="570" y="510" width="80" height="30" as="geometry" />
        </mxCell>
        <mxCell id="B4ZthugA1VZ0yfeLqG-1-64" value="&lt;p style=&quot;margin: 0px ; font-stretch: normal ; line-height: normal ; font-family: &amp;#34;pingfang sc&amp;#34;&quot;&gt;&lt;font color=&quot;#000000&quot;&gt;&lt;span&gt;村社打卡&lt;/span&gt;&lt;/font&gt;&lt;/p&gt;" style="rounded=0;whiteSpace=wrap;html=1;fillColor=#1ba1e2;fontColor=#ffffff;strokeColor=none;" parent="1" vertex="1">
          <mxGeometry x="210" y="550" width="80" height="30" as="geometry" />
        </mxCell>
        <mxCell id="B4ZthugA1VZ0yfeLqG-1-65" value="&lt;p style=&quot;margin: 0px ; font-stretch: normal ; line-height: normal ; font-family: &amp;#34;pingfang sc&amp;#34;&quot;&gt;&lt;font color=&quot;#000000&quot;&gt;&lt;span&gt;党员先锋贷&lt;/span&gt;&lt;/font&gt;&lt;/p&gt;" style="rounded=0;whiteSpace=wrap;html=1;fillColor=#1ba1e2;fontColor=#ffffff;strokeColor=none;" parent="1" vertex="1">
          <mxGeometry x="300" y="550" width="80" height="30" as="geometry" />
        </mxCell>
        <mxCell id="B4ZthugA1VZ0yfeLqG-1-66" value="&lt;p style=&quot;margin: 0px ; font-stretch: normal ; line-height: normal ; font-family: &amp;#34;pingfang sc&amp;#34;&quot;&gt;&lt;font color=&quot;#000000&quot;&gt;&lt;span&gt;成长赋能&lt;/span&gt;&lt;/font&gt;&lt;/p&gt;" style="rounded=0;whiteSpace=wrap;html=1;fillColor=#1ba1e2;fontColor=#ffffff;strokeColor=none;" parent="1" vertex="1">
          <mxGeometry x="390" y="550" width="80" height="30" as="geometry" />
        </mxCell>
        <mxCell id="B4ZthugA1VZ0yfeLqG-1-70" value="&lt;p style=&quot;margin: 0px ; font-stretch: normal ; line-height: normal ; font-family: &amp;#34;pingfang sc&amp;#34;&quot;&gt;&lt;font color=&quot;#000000&quot;&gt;&lt;span&gt;爱心驿站&lt;/span&gt;&lt;/font&gt;&lt;/p&gt;" style="rounded=0;whiteSpace=wrap;html=1;fillColor=#1ba1e2;fontColor=#ffffff;strokeColor=none;" parent="1" vertex="1">
          <mxGeometry x="480" y="550" width="80" height="30" as="geometry" />
        </mxCell>
        <mxCell id="B4ZthugA1VZ0yfeLqG-1-71" value="&lt;p style=&quot;margin: 0px ; font-stretch: normal ; line-height: normal ; font-family: &amp;#34;pingfang sc&amp;#34;&quot;&gt;&lt;font color=&quot;#000000&quot;&gt;&lt;span&gt;我行我show&lt;/span&gt;&lt;/font&gt;&lt;/p&gt;" style="rounded=0;whiteSpace=wrap;html=1;fillColor=#1ba1e2;fontColor=#ffffff;strokeColor=none;" parent="1" vertex="1">
          <mxGeometry x="570" y="550" width="80" height="30" as="geometry" />
        </mxCell>
        <mxCell id="B4ZthugA1VZ0yfeLqG-1-72" value="&lt;p style=&quot;margin: 0px ; font-stretch: normal ; line-height: normal ; font-family: &amp;#34;pingfang sc&amp;#34;&quot;&gt;&lt;font color=&quot;#000000&quot;&gt;&lt;span&gt;先锋码&lt;/span&gt;&lt;/font&gt;&lt;/p&gt;" style="rounded=0;whiteSpace=wrap;html=1;fillColor=#1ba1e2;fontColor=#ffffff;strokeColor=none;" parent="1" vertex="1">
          <mxGeometry x="210" y="590" width="80" height="30" as="geometry" />
        </mxCell>
        <mxCell id="B4ZthugA1VZ0yfeLqG-1-74" value="&lt;p style=&quot;margin: 0px ; font-stretch: normal ; line-height: normal ; font-family: &amp;#34;pingfang sc&amp;#34;&quot;&gt;&lt;font color=&quot;#000000&quot;&gt;&lt;span&gt;党建双强&lt;/span&gt;&lt;/font&gt;&lt;/p&gt;" style="rounded=0;whiteSpace=wrap;html=1;fillColor=#1ba1e2;fontColor=#ffffff;strokeColor=none;" parent="1" vertex="1">
          <mxGeometry x="300" y="590" width="80" height="30" as="geometry" />
        </mxCell>
        <mxCell id="B4ZthugA1VZ0yfeLqG-1-79" value="关键依赖" style="rounded=1;whiteSpace=wrap;html=1;" parent="1" vertex="1">
          <mxGeometry x="80" y="660" width="100" height="70" as="geometry" />
        </mxCell>
        <mxCell id="B4ZthugA1VZ0yfeLqG-1-81" value="" style="rounded=1;whiteSpace=wrap;html=1;shadow=0;glass=0;sketch=0;strokeColor=#000000;fillColor=#ffffff;gradientColor=none;fontSize=14;" parent="1" vertex="1">
          <mxGeometry x="320" y="660" width="120" height="70" as="geometry" />
        </mxCell>
        <mxCell id="B4ZthugA1VZ0yfeLqG-1-82" value="杭州史玮党建系统" style="text;html=1;strokeColor=none;fillColor=none;align=center;verticalAlign=middle;whiteSpace=wrap;rounded=0;shadow=0;glass=0;sketch=0;fontSize=14;" parent="1" vertex="1">
          <mxGeometry x="320" y="660" width="120" height="27" as="geometry" />
        </mxCell>
        <mxCell id="B4ZthugA1VZ0yfeLqG-1-83" value="API接口" style="rounded=0;whiteSpace=wrap;html=1;shadow=0;glass=0;sketch=0;strokeColor=#006EAF;fillColor=#1ba1e2;fontSize=14;fontColor=#ffffff;" parent="1" vertex="1">
          <mxGeometry x="330" y="690" width="100" height="30" as="geometry" />
        </mxCell>
        <mxCell id="B4ZthugA1VZ0yfeLqG-1-86" value="" style="rounded=1;whiteSpace=wrap;html=1;shadow=0;glass=0;sketch=0;strokeColor=#000000;fillColor=#ffffff;gradientColor=none;fontSize=14;" parent="1" vertex="1">
          <mxGeometry x="190" y="660" width="120" height="70" as="geometry" />
        </mxCell>
        <mxCell id="B4ZthugA1VZ0yfeLqG-1-87" value="mPaas客户端" style="text;html=1;strokeColor=none;fillColor=none;align=center;verticalAlign=middle;whiteSpace=wrap;rounded=0;shadow=0;glass=0;sketch=0;fontSize=14;" parent="1" vertex="1">
          <mxGeometry x="190" y="660" width="120" height="27" as="geometry" />
        </mxCell>
        <mxCell id="B4ZthugA1VZ0yfeLqG-1-88" value="西湖先锋APP" style="rounded=0;whiteSpace=wrap;html=1;shadow=0;glass=0;sketch=0;strokeColor=#006EAF;fillColor=#1ba1e2;fontSize=14;fontColor=#ffffff;" parent="1" vertex="1">
          <mxGeometry x="200" y="690" width="100" height="30" as="geometry" />
        </mxCell>
        <mxCell id="B4ZthugA1VZ0yfeLqG-1-89" value="" style="rounded=1;whiteSpace=wrap;html=1;shadow=0;glass=0;sketch=0;strokeColor=#000000;fillColor=#ffffff;gradientColor=none;fontSize=14;" parent="1" vertex="1">
          <mxGeometry x="450" y="660" width="120" height="70" as="geometry" />
        </mxCell>
        <mxCell id="B4ZthugA1VZ0yfeLqG-1-90" value="干部学习系统" style="text;html=1;strokeColor=none;fillColor=none;align=center;verticalAlign=middle;whiteSpace=wrap;rounded=0;shadow=0;glass=0;sketch=0;fontSize=14;" parent="1" vertex="1">
          <mxGeometry x="450" y="660" width="120" height="27" as="geometry" />
        </mxCell>
        <mxCell id="B4ZthugA1VZ0yfeLqG-1-91" value="学习接口" style="rounded=0;whiteSpace=wrap;html=1;shadow=0;glass=0;sketch=0;strokeColor=#006EAF;fillColor=#1ba1e2;fontSize=14;fontColor=#ffffff;" parent="1" vertex="1">
          <mxGeometry x="460" y="690" width="100" height="30" as="geometry" />
        </mxCell>
        <mxCell id="B4ZthugA1VZ0yfeLqG-1-92" value="" style="rounded=1;whiteSpace=wrap;html=1;shadow=0;glass=0;sketch=0;strokeColor=#000000;fillColor=#ffffff;gradientColor=none;fontSize=14;" parent="1" vertex="1">
          <mxGeometry x="580" y="660" width="120" height="70" as="geometry" />
        </mxCell>
        <mxCell id="B4ZthugA1VZ0yfeLqG-1-93" value="支付宝小程序" style="text;html=1;strokeColor=none;fillColor=none;align=center;verticalAlign=middle;whiteSpace=wrap;rounded=0;shadow=0;glass=0;sketch=0;fontSize=14;" parent="1" vertex="1">
          <mxGeometry x="580" y="660" width="120" height="27" as="geometry" />
        </mxCell>
        <mxCell id="B4ZthugA1VZ0yfeLqG-1-94" value="组件" style="rounded=0;whiteSpace=wrap;html=1;shadow=0;glass=0;sketch=0;strokeColor=#006EAF;fillColor=#1ba1e2;fontSize=14;fontColor=#ffffff;" parent="1" vertex="1">
          <mxGeometry x="590" y="690" width="100" height="30" as="geometry" />
        </mxCell>
        <mxCell id="B4ZthugA1VZ0yfeLqG-1-99" value="" style="shape=mxgraph.bpmn.user_task;html=1;outlineConnect=0;rounded=0;shadow=0;glass=0;sketch=0;fontSize=14;fillColor=#ffcd28;strokeColor=#d79b00;gradientColor=#ffa500;" parent="1" vertex="1">
          <mxGeometry x="220" y="80" width="40" height="40" as="geometry" />
        </mxCell>
        <mxCell id="B4ZthugA1VZ0yfeLqG-1-101" value="游客" style="text;html=1;strokeColor=none;fillColor=none;align=center;verticalAlign=middle;whiteSpace=wrap;rounded=0;shadow=0;glass=0;sketch=0;fontSize=14;" parent="1" vertex="1">
          <mxGeometry x="220" y="120" width="40" height="20" as="geometry" />
        </mxCell>
        <mxCell id="B4ZthugA1VZ0yfeLqG-1-102" value="" style="shape=mxgraph.bpmn.user_task;html=1;outlineConnect=0;rounded=0;shadow=0;glass=0;sketch=0;fontSize=14;fillColor=#ffcd28;strokeColor=#d79b00;gradientColor=#ffa500;" parent="1" vertex="1">
          <mxGeometry x="290" y="80" width="40" height="40" as="geometry" />
        </mxCell>
        <mxCell id="B4ZthugA1VZ0yfeLqG-1-103" value="群众" style="text;html=1;strokeColor=none;fillColor=none;align=center;verticalAlign=middle;whiteSpace=wrap;rounded=0;shadow=0;glass=0;sketch=0;fontSize=14;" parent="1" vertex="1">
          <mxGeometry x="290" y="120" width="40" height="20" as="geometry" />
        </mxCell>
        <mxCell id="B4ZthugA1VZ0yfeLqG-1-107" value="" style="shape=mxgraph.bpmn.user_task;html=1;outlineConnect=0;rounded=0;shadow=0;glass=0;sketch=0;fontSize=14;fillColor=#ffcd28;strokeColor=#d79b00;gradientColor=#ffa500;" parent="1" vertex="1">
          <mxGeometry x="360" y="80" width="40" height="40" as="geometry" />
        </mxCell>
        <mxCell id="B4ZthugA1VZ0yfeLqG-1-108" value="党员" style="text;html=1;strokeColor=none;fillColor=none;align=center;verticalAlign=middle;whiteSpace=wrap;rounded=0;shadow=0;glass=0;sketch=0;fontSize=14;" parent="1" vertex="1">
          <mxGeometry x="360" y="120" width="40" height="20" as="geometry" />
        </mxCell>
        <mxCell id="B4ZthugA1VZ0yfeLqG-1-109" value="" style="shape=mxgraph.bpmn.user_task;html=1;outlineConnect=0;rounded=0;shadow=0;glass=0;sketch=0;fontSize=14;fillColor=#ffcd28;strokeColor=#d79b00;gradientColor=#ffa500;" parent="1" vertex="1">
          <mxGeometry x="430" y="80" width="40" height="40" as="geometry" />
        </mxCell>
        <mxCell id="B4ZthugA1VZ0yfeLqG-1-110" value="干部" style="text;html=1;strokeColor=none;fillColor=none;align=center;verticalAlign=middle;whiteSpace=wrap;rounded=0;shadow=0;glass=0;sketch=0;fontSize=14;" parent="1" vertex="1">
          <mxGeometry x="430" y="120" width="40" height="20" as="geometry" />
        </mxCell>
        <mxCell id="B4ZthugA1VZ0yfeLqG-1-111" value="" style="shape=mxgraph.bpmn.user_task;html=1;outlineConnect=0;rounded=0;shadow=0;glass=0;sketch=0;fontSize=14;fillColor=#ffcd28;strokeColor=#d79b00;gradientColor=#ffa500;" parent="1" vertex="1">
          <mxGeometry x="500" y="80" width="40" height="40" as="geometry" />
        </mxCell>
        <mxCell id="B4ZthugA1VZ0yfeLqG-1-112" value="管理员" style="text;html=1;strokeColor=none;fillColor=none;align=center;verticalAlign=middle;whiteSpace=wrap;rounded=0;shadow=0;glass=0;sketch=0;fontSize=14;" parent="1" vertex="1">
          <mxGeometry x="490" y="120" width="60" height="20" as="geometry" />
        </mxCell>
      </root>
    </mxGraphModel>
  </diagram>
</mxfile>
